<svg width="22" height="23" viewBox="0 0 22 23" fill="none" xmlns="http://www.w3.org/2000/svg">
<path d="M15.359 22V18.1349C15.3974 17.6587 15.3314 17.18 15.1651 16.7305C14.9989 16.2811 14.7363 15.8712 14.3949 15.5283C17.6154 15.1787 21 13.9902 21 8.53718C20.9997 7.14278 20.4489 5.80187 19.4615 4.79196C19.9291 3.57202 19.896 2.22358 19.3692 1.02676C19.3692 1.02676 18.159 0.677205 15.359 2.50487C13.0082 1.88449 10.5302 1.88449 8.17949 2.50487C5.37949 0.677205 4.16923 1.02676 4.16923 1.02676C3.64244 2.22358 3.60938 3.57202 4.07692 4.79196C3.08218 5.80936 2.53079 7.16239 2.53846 8.56714C2.53846 13.9802 5.92308 15.1687 9.14359 15.5582C8.80615 15.8978 8.54591 16.3027 8.3798 16.7466C8.2137 17.1906 8.14544 17.6636 8.17949 18.1349V22M8.17949 19.0038C3.05128 20.5019 3.05128 16.507 1 16.0076L8.17949 19.0038Z" stroke="#00B7D0" stroke-width="2" stroke-linecap="round" stroke-linejoin="round"/>
</svg>
