<svg width="19" height="21" viewBox="0 0 19 21" fill="none" xmlns="http://www.w3.org/2000/svg">
<path d="M1 4.8H2.88889H18" stroke="#FF295E" stroke-width="2" stroke-linecap="round" stroke-linejoin="round"/>
<path d="M5.72249 4.8V2.9C5.72249 2.39609 5.9215 1.91282 6.27574 1.5565C6.62997 1.20018 7.11042 1 7.61138 1H11.3892C11.8901 1 12.3706 1.20018 12.7248 1.5565C13.079 1.91282 13.278 2.39609 13.278 2.9V4.8M16.1114 4.8V18.1C16.1114 18.6039 15.9124 19.0872 15.5581 19.4435C15.2039 19.7998 14.7235 20 14.2225 20H4.77805C4.27708 20 3.79664 19.7998 3.4424 19.4435C3.08817 19.0872 2.88916 18.6039 2.88916 18.1V4.8H16.1114Z" stroke="#FF295E" stroke-width="2" stroke-linecap="round" stroke-linejoin="round"/>
<path d="M7.61084 9.55V15.25" stroke="#FF295E" stroke-width="2" stroke-linecap="round" stroke-linejoin="round"/>
<path d="M11.3892 9.55V15.25" stroke="#FF295E" stroke-width="2" stroke-linecap="round" stroke-linejoin="round"/>
</svg>
