<svg width="22" height="19" viewBox="0 0 22 19" fill="none" xmlns="http://www.w3.org/2000/svg">
<path d="M11.0029 9.17801V17.3582" stroke="#00374F" stroke-width="2" stroke-linecap="round" stroke-linejoin="round"/>
<path d="M18.6287 14.986C19.5152 14.5027 20.2155 13.7379 20.6191 12.8124C21.0227 11.8869 21.1066 10.8533 20.8575 9.87485C20.6085 8.89637 20.0407 8.02868 19.2437 7.40875C18.4468 6.78881 17.4661 6.45192 16.4564 6.45125H15.3112C15.036 5.38713 14.5233 4.39923 13.8114 3.56181C13.0995 2.72439 12.2071 2.05924 11.2011 1.61638C10.1952 1.17352 9.10196 0.964463 8.00359 1.00493C6.90523 1.0454 5.83033 1.33434 4.85971 1.85002C3.88909 2.36571 3.048 3.09473 2.39969 3.98226C1.75137 4.8698 1.31269 5.89276 1.11662 6.97424C0.920562 8.05572 0.97222 9.16757 1.26772 10.2262C1.56321 11.2849 2.09485 12.2627 2.82268 13.0863" stroke="#00374F" stroke-width="2" stroke-linecap="round" stroke-linejoin="round"/>
<path d="M14.6385 12.8137L11.0028 9.17801L7.36719 12.8137" stroke="#00374F" stroke-width="2" stroke-linecap="round" stroke-linejoin="round"/>
</svg>
