<svg width="18" height="19" viewBox="0 0 18 19" fill="none" xmlns="http://www.w3.org/2000/svg">
<path d="M15.4 6.94971H8.19987C7.31621 6.94971 6.59985 7.71083 6.59985 8.64973V16.2998C6.59985 17.2387 7.31621 17.9999 8.19987 17.9999H15.4C16.2836 17.9999 17 17.2387 17 16.2998V8.64973C17 7.71083 16.2836 6.94971 15.4 6.94971Z" stroke="#00B7D0" stroke-width="2" stroke-linecap="round" stroke-linejoin="round"/>
<path d="M3.40003 12.0501H2.60002C2.17567 12.0501 1.7687 11.871 1.46863 11.5522C1.16857 11.2334 1 10.801 1 10.3501V2.70002C1 2.24915 1.16857 1.81674 1.46863 1.49793C1.7687 1.17911 2.17567 1 2.60002 1H9.8001C10.2244 1 10.6314 1.17911 10.9315 1.49793C11.2315 1.81674 11.4001 2.24915 11.4001 2.70002V3.55003" stroke="#00B7D0" stroke-width="2" stroke-linecap="round" stroke-linejoin="round"/>
</svg>
